# xmcd
#
# Track frame offsets:
#	150
#	16555
#	33122
#	45545
#	59047
#	68672
#	83442
#	95240
#	102207
#	114267
#	127887
#	141475
#	155325
#	168857
#	177837
#	193470
#	207092
#	221147
#	235667
#	248967
#
# Disc length: 3472 seconds
#
# Revision: 0
# Processed by: cddbd v1.5.2PL0 Copyright (c) Steve Scherf et al.
# Submitted via: EasyCDDAExtractor 16.0.6.1
#
DISCID=0d0d8e14
DTITLE=Άνευ ερμηνευτού - Τσιφτετέλια χωρίς λόγια  
DYEAR=1992
DGENRE=Τσιφτετέλια ορχηστρικά
TTITLE0=Τσιφτετέλι τσιγγάνικο [Γ. Κόρου]
TTITLE1=Τσιφτετέλι Νο 1 [. ΓΚόρου]
TTITLE2=Τσιφτετέλι [Τ. Σούκα]
TTITLE3=Το τσιφτετέλι του Μπουρνέλλη 1970 [Λ. Μπουρνέλλη]
TTITLE4=Τσιφτετέλι για όλους [Β. Σαλέα]
TTITLE5=Τσιφτετέλι χαρέμικο [Γ. Κόρου]
TTITLE6=Τσιφτετέλι ανατολίτικο [Σ. Σουκρή]
TTITLE7=Τσιφτετέλι ερωτικό [Διασκ. Ν. Πετρίδη]
TTITLE8=Μωραϊτικο τσιφτετέλι [Τ. Έζδρα]
TTITLE9=Οι φωτιές του Κόρου [Γ. Κόρου]
TTITLE10=Το καινούργιο τσιφτετέλι [Γ. Κόρου]
TTITLE11=Τσιφτετέλι Νο 2 [Γ. Κόρου]
TTITLE12=Το μερακλίδικο τσιφτετέλι [Λ. Μπουρνέλλη]
TTITLE13=Το τσιφτετέλι του Σαλέα [Β. Σαλέα]
TTITLE14=Τσιφτετέλι Νο 7 [Γ. Κόρου]
TTITLE15=Τσιφτετέλι Νο 10 [Γ. Κόρου]
TTITLE16=Ανατολίτικος αέρας [Γ. Παλαιολόγου]
TTITLE17=Το μοντέρνο τσιφτετέλι του Σούκα [Ευάγγ. Σούκα]
TTITLE18=Τσιφτετέλι στο τραπέζι [Δ. Βύζα]
TTITLE19=Τσιφτετέλι ανατολίτικο Νο 2 [Σ. Σούκρη]
EXTD=
EXTT0=
EXTT1=
EXTT2=
EXTT3=
EXTT4=
EXTT5=
EXTT6=
EXTT7=
EXTT8=
EXTT9=
EXTT10=
EXTT11=
EXTT12=
EXTT13=
EXTT14=
EXTT15=
EXTT16=
EXTT17=
EXTT18=
EXTT19=
PLAYORDER=
